<mxfile host="app.diagrams.net" modified="2024-01-25T07:01:38.220Z" agent="Mozilla/5.0 (Windows NT 10.0; Win64; x64) AppleWebKit/537.36 (KHTML, like Gecko) Chrome/120.0.0.0 Safari/537.36" etag="FSD3VYu0DWtnQz7bmeKn" version="23.0.1" type="device" pages="2">
  <diagram name="Page-1" id="JEMUXD9DNrau_WJXzeGM">
    <mxGraphModel dx="794" dy="454" grid="1" gridSize="10" guides="1" tooltips="1" connect="1" arrows="1" fold="1" page="1" pageScale="1" pageWidth="850" pageHeight="1100" math="0" shadow="0">
      <root>
        <mxCell id="0" />
        <mxCell id="1" parent="0" />
        <mxCell id="1sm1QuId9HLeEcLdiZsg-1" value="" style="rounded=1;whiteSpace=wrap;html=1;" parent="1" vertex="1">
          <mxGeometry x="270" y="40" width="260" height="420" as="geometry" />
        </mxCell>
        <mxCell id="1sm1QuId9HLeEcLdiZsg-2" value="Actor" style="shape=umlActor;verticalLabelPosition=bottom;verticalAlign=top;html=1;outlineConnect=0;" parent="1" vertex="1">
          <mxGeometry x="210" y="140" width="20" height="40" as="geometry" />
        </mxCell>
        <mxCell id="1sm1QuId9HLeEcLdiZsg-3" value="check&lt;br&gt;attendance" style="ellipse;whiteSpace=wrap;html=1;fillColor=#dae8fc;strokeColor=#6c8ebf;" parent="1" vertex="1">
          <mxGeometry x="340" y="90" width="110" height="50" as="geometry" />
        </mxCell>
        <mxCell id="1sm1QuId9HLeEcLdiZsg-4" value="check&lt;br&gt;timetable" style="ellipse;whiteSpace=wrap;html=1;fillColor=#dae8fc;strokeColor=#6c8ebf;" parent="1" vertex="1">
          <mxGeometry x="340" y="155" width="110" height="50" as="geometry" />
        </mxCell>
        <mxCell id="1sm1QuId9HLeEcLdiZsg-5" value="check&lt;br&gt;grades" style="ellipse;whiteSpace=wrap;html=1;fillColor=#dae8fc;strokeColor=#6c8ebf;" parent="1" vertex="1">
          <mxGeometry x="345" y="215" width="110" height="50" as="geometry" />
        </mxCell>
        <mxCell id="1sm1QuId9HLeEcLdiZsg-6" value="update&lt;br&gt;attendance" style="ellipse;whiteSpace=wrap;html=1;direction=west;fillColor=#dae8fc;strokeColor=#6c8ebf;" parent="1" vertex="1">
          <mxGeometry x="345" y="280" width="110" height="60" as="geometry" />
        </mxCell>
        <mxCell id="1sm1QuId9HLeEcLdiZsg-7" value="update&lt;br&gt;grades" style="ellipse;whiteSpace=wrap;html=1;fillColor=#dae8fc;strokeColor=#6c8ebf;" parent="1" vertex="1">
          <mxGeometry x="340" y="350" width="115" height="60" as="geometry" />
        </mxCell>
        <mxCell id="1sm1QuId9HLeEcLdiZsg-8" value="Actor" style="shape=umlActor;verticalLabelPosition=bottom;verticalAlign=top;html=1;outlineConnect=0;" parent="1" vertex="1">
          <mxGeometry x="50" y="860" width="30" height="60" as="geometry" />
        </mxCell>
        <mxCell id="1sm1QuId9HLeEcLdiZsg-9" value="Actor" style="shape=umlActor;verticalLabelPosition=bottom;verticalAlign=top;html=1;outlineConnect=0;" parent="1" vertex="1">
          <mxGeometry x="580" y="280" width="30" height="60" as="geometry" />
        </mxCell>
        <mxCell id="1sm1QuId9HLeEcLdiZsg-10" value="" style="endArrow=none;html=1;rounded=0;entryX=-0.012;entryY=0.72;entryDx=0;entryDy=0;entryPerimeter=0;" parent="1" target="1sm1QuId9HLeEcLdiZsg-3" edge="1">
          <mxGeometry width="50" height="50" relative="1" as="geometry">
            <mxPoint x="240" y="155" as="sourcePoint" />
            <mxPoint x="290" y="110" as="targetPoint" />
            <Array as="points">
              <mxPoint x="270" y="135" />
              <mxPoint x="340" y="120" />
            </Array>
          </mxGeometry>
        </mxCell>
        <mxCell id="1sm1QuId9HLeEcLdiZsg-11" value="" style="endArrow=none;html=1;rounded=0;" parent="1" edge="1">
          <mxGeometry width="50" height="50" relative="1" as="geometry">
            <mxPoint x="240" y="180" as="sourcePoint" />
            <mxPoint x="290" y="130" as="targetPoint" />
          </mxGeometry>
        </mxCell>
        <mxCell id="jaqxlfDgFvKjf67z81sv-1" value="Text" style="edgeLabel;html=1;align=center;verticalAlign=middle;resizable=0;points=[];" vertex="1" connectable="0" parent="1sm1QuId9HLeEcLdiZsg-11">
          <mxGeometry x="0.52" y="-1" relative="1" as="geometry">
            <mxPoint as="offset" />
          </mxGeometry>
        </mxCell>
      </root>
    </mxGraphModel>
  </diagram>
  <diagram id="u6GD4dr-77OBVFGKJhgN" name="Page-2">
    <mxGraphModel dx="794" dy="454" grid="1" gridSize="10" guides="1" tooltips="1" connect="1" arrows="1" fold="1" page="1" pageScale="1" pageWidth="850" pageHeight="1100" math="0" shadow="0">
      <root>
        <mxCell id="0" />
        <mxCell id="1" parent="0" />
        <mxCell id="v_OSg9xtDXAKsAqMjB4M-1" value="" style="rounded=0;whiteSpace=wrap;html=1;" vertex="1" parent="1">
          <mxGeometry x="310" y="20" width="270" height="640" as="geometry" />
        </mxCell>
        <mxCell id="v_OSg9xtDXAKsAqMjB4M-2" value="check&lt;br&gt;attendance" style="ellipse;whiteSpace=wrap;html=1;fillColor=#dae8fc;strokeColor=#6c8ebf;" vertex="1" parent="1">
          <mxGeometry x="385" y="100" width="120" height="80" as="geometry" />
        </mxCell>
        <mxCell id="v_OSg9xtDXAKsAqMjB4M-3" value="check&lt;br&gt;timetable" style="ellipse;whiteSpace=wrap;html=1;fillColor=#dae8fc;strokeColor=#6c8ebf;" vertex="1" parent="1">
          <mxGeometry x="380" y="200" width="120" height="80" as="geometry" />
        </mxCell>
        <mxCell id="v_OSg9xtDXAKsAqMjB4M-4" value="check&amp;nbsp;&lt;br&gt;grades" style="ellipse;whiteSpace=wrap;html=1;fillColor=#dae8fc;strokeColor=#6c8ebf;" vertex="1" parent="1">
          <mxGeometry x="385" y="300" width="120" height="80" as="geometry" />
        </mxCell>
        <mxCell id="v_OSg9xtDXAKsAqMjB4M-5" value="update&lt;br&gt;attendance" style="ellipse;whiteSpace=wrap;html=1;fillColor=#dae8fc;strokeColor=#6c8ebf;" vertex="1" parent="1">
          <mxGeometry x="385" y="410" width="120" height="80" as="geometry" />
        </mxCell>
        <mxCell id="v_OSg9xtDXAKsAqMjB4M-6" value="update&lt;br&gt;grades" style="ellipse;whiteSpace=wrap;html=1;fillColor=#dae8fc;strokeColor=#6c8ebf;" vertex="1" parent="1">
          <mxGeometry x="385" y="520" width="120" height="80" as="geometry" />
        </mxCell>
        <mxCell id="v_OSg9xtDXAKsAqMjB4M-7" value="student" style="shape=umlActor;verticalLabelPosition=bottom;verticalAlign=top;html=1;outlineConnect=0;" vertex="1" parent="1">
          <mxGeometry x="220" y="130" width="30" height="60" as="geometry" />
        </mxCell>
        <mxCell id="v_OSg9xtDXAKsAqMjB4M-8" value="teacher" style="shape=umlActor;verticalLabelPosition=bottom;verticalAlign=top;html=1;outlineConnect=0;" vertex="1" parent="1">
          <mxGeometry x="640" y="380" width="30" height="60" as="geometry" />
        </mxCell>
        <mxCell id="v_OSg9xtDXAKsAqMjB4M-9" value="" style="endArrow=none;html=1;rounded=0;entryX=0;entryY=0.5;entryDx=0;entryDy=0;" edge="1" parent="1" target="v_OSg9xtDXAKsAqMjB4M-4">
          <mxGeometry width="50" height="50" relative="1" as="geometry">
            <mxPoint x="250" y="150" as="sourcePoint" />
            <mxPoint x="400" y="240" as="targetPoint" />
            <Array as="points" />
          </mxGeometry>
        </mxCell>
        <mxCell id="v_OSg9xtDXAKsAqMjB4M-10" value="" style="endArrow=none;html=1;rounded=0;entryX=0;entryY=0.5;entryDx=0;entryDy=0;" edge="1" parent="1" target="v_OSg9xtDXAKsAqMjB4M-2">
          <mxGeometry width="50" height="50" relative="1" as="geometry">
            <mxPoint x="250" y="150" as="sourcePoint" />
            <mxPoint x="450" y="70" as="targetPoint" />
          </mxGeometry>
        </mxCell>
        <mxCell id="v_OSg9xtDXAKsAqMjB4M-11" value="" style="endArrow=none;html=1;rounded=0;entryX=0;entryY=0.5;entryDx=0;entryDy=0;" edge="1" parent="1" target="v_OSg9xtDXAKsAqMjB4M-3">
          <mxGeometry width="50" height="50" relative="1" as="geometry">
            <mxPoint x="250" y="150" as="sourcePoint" />
            <mxPoint x="455" y="190" as="targetPoint" />
          </mxGeometry>
        </mxCell>
        <mxCell id="v_OSg9xtDXAKsAqMjB4M-12" value="" style="endArrow=none;html=1;rounded=0;entryX=1;entryY=0.5;entryDx=0;entryDy=0;" edge="1" parent="1" target="v_OSg9xtDXAKsAqMjB4M-2">
          <mxGeometry width="50" height="50" relative="1" as="geometry">
            <mxPoint x="640" y="400" as="sourcePoint" />
            <mxPoint x="564.6800000000001" y="297.36" as="targetPoint" />
            <Array as="points" />
          </mxGeometry>
        </mxCell>
        <mxCell id="v_OSg9xtDXAKsAqMjB4M-13" value="" style="endArrow=none;html=1;rounded=0;" edge="1" parent="1" source="v_OSg9xtDXAKsAqMjB4M-1" target="v_OSg9xtDXAKsAqMjB4M-1">
          <mxGeometry width="50" height="50" relative="1" as="geometry">
            <mxPoint x="510" y="325" as="sourcePoint" />
            <mxPoint x="560" y="275" as="targetPoint" />
          </mxGeometry>
        </mxCell>
        <mxCell id="v_OSg9xtDXAKsAqMjB4M-14" style="edgeStyle=orthogonalEdgeStyle;rounded=0;orthogonalLoop=1;jettySize=auto;html=1;" edge="1" parent="1" source="v_OSg9xtDXAKsAqMjB4M-1" target="v_OSg9xtDXAKsAqMjB4M-1">
          <mxGeometry relative="1" as="geometry" />
        </mxCell>
        <mxCell id="v_OSg9xtDXAKsAqMjB4M-16" value="" style="endArrow=none;html=1;rounded=0;exitX=1;exitY=0.5;exitDx=0;exitDy=0;entryX=0;entryY=0.3333333333333333;entryDx=0;entryDy=0;entryPerimeter=0;" edge="1" parent="1" source="v_OSg9xtDXAKsAqMjB4M-3" target="v_OSg9xtDXAKsAqMjB4M-8">
          <mxGeometry width="50" height="50" relative="1" as="geometry">
            <mxPoint x="480" y="260" as="sourcePoint" />
            <mxPoint x="535" y="210" as="targetPoint" />
          </mxGeometry>
        </mxCell>
        <mxCell id="v_OSg9xtDXAKsAqMjB4M-17" value="" style="endArrow=none;html=1;rounded=0;exitX=0.992;exitY=0.625;exitDx=0;exitDy=0;exitPerimeter=0;" edge="1" parent="1" source="v_OSg9xtDXAKsAqMjB4M-4">
          <mxGeometry width="50" height="50" relative="1" as="geometry">
            <mxPoint x="520" y="360" as="sourcePoint" />
            <mxPoint x="640" y="400" as="targetPoint" />
          </mxGeometry>
        </mxCell>
        <mxCell id="v_OSg9xtDXAKsAqMjB4M-18" value="" style="endArrow=none;html=1;rounded=0;exitX=1;exitY=0;exitDx=0;exitDy=0;" edge="1" parent="1" source="v_OSg9xtDXAKsAqMjB4M-5">
          <mxGeometry width="50" height="50" relative="1" as="geometry">
            <mxPoint x="440" y="380" as="sourcePoint" />
            <mxPoint x="640" y="400" as="targetPoint" />
          </mxGeometry>
        </mxCell>
        <mxCell id="v_OSg9xtDXAKsAqMjB4M-19" value="" style="endArrow=none;html=1;rounded=0;exitX=1;exitY=0;exitDx=0;exitDy=0;" edge="1" parent="1" source="v_OSg9xtDXAKsAqMjB4M-6">
          <mxGeometry width="50" height="50" relative="1" as="geometry">
            <mxPoint x="505" y="479.9984615384615" as="sourcePoint" />
            <mxPoint x="640" y="400" as="targetPoint" />
          </mxGeometry>
        </mxCell>
        <mxCell id="v_OSg9xtDXAKsAqMjB4M-20" value="STUDENT MANAGEMENT SYSTEM" style="text;html=1;strokeColor=none;fillColor=none;align=center;verticalAlign=middle;whiteSpace=wrap;rounded=0;" vertex="1" parent="1">
          <mxGeometry x="385" y="50" width="120" height="30" as="geometry" />
        </mxCell>
      </root>
    </mxGraphModel>
  </diagram>
</mxfile>
